<svg width="200" height="200" viewBox="0 0 200 200" fill="none" xmlns="http://www.w3.org/2000/svg">
<rect width="200" height="200" rx="75" fill="url(#paint0_linear_2158_6)"/>
<rect x="4" y="4" width="192" height="192" rx="71" stroke="white" stroke-opacity="0.3" stroke-width="8"/>
<path d="M142 109.015C142 112.199 140.736 115.252 138.485 117.503C136.235 119.754 133.183 121.019 130 121.019H86.968C83.7857 121.02 80.7339 122.285 78.484 124.536L65.272 137.752C64.6762 138.348 63.9172 138.754 63.0909 138.918C62.2646 139.083 61.4082 138.998 60.6298 138.676C59.8515 138.353 59.1862 137.807 58.7181 137.106C58.25 136.406 58.0001 135.582 58 134.739V73.0038C58 69.8202 59.2643 66.767 61.5147 64.5158C63.7652 62.2647 66.8174 61 70 61H130C133.183 61 136.235 62.2647 138.485 64.5158C140.736 66.767 142 69.8202 142 73.0038V109.015Z" fill="white"/>
<defs>
<linearGradient id="paint0_linear_2158_6" x1="100" y1="0" x2="100" y2="200" gradientUnits="userSpaceOnUse">
<stop stop-color="#3EF8D4"/>
<stop offset="1" stop-color="#31C9A9"/>
</linearGradient>
</defs>
</svg>
